<?xml version="1.0" standalone="no"?>
<svg xmlns="http://www.w3.org/2000/svg" viewBox="0 0 98 67" width="98" height="67"><g fill="#6a8bff" color="#6a8bff" transform="translate(31.088 0) scale(0.35) "><svg width="100.0" height="100.0" x="0.0" y="0.0" viewBox="0 0 100 100"><path d="M50,33c-10.5,0-19,8.5-19,19s8.5,19,19,19s19-8.5,19-19S60.5,33,50,33z M50,67c-8.3,0-15-6.7-15-15c0-8.3,6.7-15,15-15  s15,6.7,15,15C65,60.3,58.3,67,50,67z M83,29H68l-6.3-8.2c-0.4-0.5-1-0.8-1.6-0.8H39.9c-0.6,0-1.2,0.3-1.6,0.8L32,29H17  c-4.4,0-8,3.6-8,8v35c0,4.4,3.6,8,8,8h66c4.4,0,8-3.6,8-8V37C91,32.6,87.4,29,83,29z M87,72c0,2.2-1.8,4-4,4H17c-2.2,0-4-1.8-4-4V37  c0-2.2,1.8-4,4-4h16c0.6,0,1.2-0.3,1.6-0.8l6.3-8.2h18.2l6.3,8.2c0.4,0.5,1,0.8,1.6,0.8h16c2.2,0,4,1.8,4,4V72z"></path></svg></g><line x1="32.138000000000005" y1="41" x2="65.03800000000001" y2="41" stroke="#5e24c3" stroke-linecap="round"></line><path fill="#5e24c3" fill-rule="nonzero" d="M2.66 19.61L0 19.61L0 0.17L2.66 0.17L2.66 19.61ZM10.44 19.85L10.44 19.85Q8.62 19.85 7.52 19.07Q6.43 18.29 5.94 16.80Q5.45 15.31 5.45 13.22L5.45 13.22L5.45 6.72Q5.45 4.58 5.89 3.08Q6.34 1.58 7.48 0.79Q8.62 0 10.66 0L10.66 0Q12.48 0 13.60 0.61Q14.71 1.22 15.22 2.48Q15.72 3.74 15.72 5.66L15.72 5.66L15.72 6.38L13.18 6.38L13.18 5.78Q13.18 4.51 13.01 3.71Q12.84 2.90 12.32 2.51Q11.81 2.11 10.70 2.11L10.70 2.11Q9.50 2.11 8.96 2.66Q8.42 3.22 8.29 4.16Q8.16 5.11 8.16 6.31L8.16 6.31L8.16 13.51Q8.16 14.90 8.36 15.84Q8.57 16.78 9.14 17.23Q9.72 17.69 10.78 17.69L10.78 17.69Q11.83 17.69 12.41 17.18Q12.98 16.68 13.20 15.70Q13.42 14.71 13.42 13.25L13.42 13.25L13.42 11.90L10.94 11.90L10.94 9.98L15.86 9.98L15.86 19.61L14.16 19.61L13.90 17.38Q13.51 18.46 12.70 19.15Q11.88 19.85 10.44 19.85ZM23.23 19.82L23.23 19.82Q21.55 19.82 20.44 19.10Q19.32 18.38 18.74 17.11Q18.17 15.84 18.07 14.16L18.07 14.16L20.47 13.51Q20.54 14.54 20.80 15.50Q21.05 16.46 21.62 17.08Q22.20 17.69 23.23 17.69L23.23 17.69Q24.29 17.69 24.83 17.10Q25.37 16.51 25.37 15.41L25.37 15.41Q25.37 14.09 24.77 13.28Q24.17 12.48 23.26 11.66L23.26 11.66L19.99 8.78Q19.03 7.94 18.58 6.95Q18.12 5.95 18.12 4.49L18.12 4.49Q18.12 2.35 19.34 1.18Q20.57 0 22.68 0L22.68 0Q23.83 0 24.71 0.30Q25.58 0.60 26.17 1.22Q26.76 1.85 27.11 2.80Q27.46 3.74 27.58 5.02L27.58 5.02L25.27 5.64Q25.20 4.68 24.98 3.88Q24.77 3.07 24.23 2.58Q23.69 2.09 22.68 2.09L22.68 2.09Q21.67 2.09 21.11 2.63Q20.54 3.17 20.54 4.22L20.54 4.22Q20.54 5.11 20.84 5.69Q21.14 6.26 21.82 6.86L21.82 6.86L25.10 9.74Q26.21 10.70 27.05 12.04Q27.89 13.37 27.89 15.19L27.89 15.19Q27.89 16.63 27.29 17.68Q26.69 18.72 25.64 19.27Q24.60 19.82 23.23 19.82ZM33.48 19.80L33.48 19.80Q32.40 19.80 31.74 19.39Q31.08 18.98 30.78 18.24Q30.48 17.50 30.48 16.49L30.48 16.49L30.48 7.44L29.02 7.44L29.02 5.74L30.48 5.74L30.48 1.68L33.05 1.68L33.05 5.74L35.28 5.74L35.28 7.44L33.05 7.44L33.05 16.32Q33.05 17.14 33.31 17.48Q33.58 17.83 34.32 17.83L34.32 17.83Q34.51 17.83 34.76 17.81Q35.02 17.78 35.26 17.76L35.26 17.76L35.26 19.66Q34.78 19.73 34.37 19.76Q33.96 19.80 33.48 19.80ZM39.67 19.80L39.67 19.80Q38.86 19.80 38.23 19.33Q37.61 18.86 37.25 18.13Q36.89 17.40 36.89 16.58L36.89 16.58Q36.89 15.29 37.32 14.40Q37.75 13.51 38.51 12.90Q39.26 12.29 40.26 11.83Q41.26 11.38 42.36 10.94L42.36 10.94L42.36 9.96Q42.36 9.12 42.26 8.57Q42.17 8.02 41.87 7.74Q41.57 7.46 40.97 7.46L40.97 7.46Q40.44 7.46 40.12 7.70Q39.79 7.94 39.65 8.39Q39.50 8.83 39.50 9.43L39.50 9.43L39.50 10.13L36.96 10.03Q37.01 7.73 38.02 6.64Q39.02 5.54 41.14 5.54L41.14 5.54Q43.20 5.54 44.06 6.67Q44.93 7.80 44.93 9.94L44.93 9.94L44.93 16.27Q44.93 16.92 44.96 17.52Q45 18.12 45.06 18.64Q45.12 19.15 45.17 19.61L45.17 19.61L42.82 19.61Q42.74 19.22 42.64 18.64Q42.53 18.05 42.48 17.57L42.48 17.57Q42.24 18.38 41.56 19.09Q40.87 19.80 39.67 19.80ZM40.68 17.59L40.68 17.59Q41.06 17.59 41.40 17.38Q41.74 17.16 42 16.88Q42.26 16.61 42.36 16.44L42.36 16.44L42.36 12.50Q41.76 12.84 41.23 13.18Q40.70 13.51 40.31 13.88Q39.91 14.26 39.68 14.72Q39.46 15.19 39.46 15.79L39.46 15.79Q39.46 16.63 39.77 17.11Q40.08 17.59 40.68 17.59ZM50.90 19.80L50.90 19.80Q49.82 19.80 49.16 19.39Q48.50 18.98 48.20 18.24Q47.90 17.50 47.90 16.49L47.90 16.49L47.90 7.44L46.44 7.44L46.44 5.74L47.90 5.74L47.90 1.68L50.47 1.68L50.47 5.74L52.70 5.74L52.70 7.44L50.47 7.44L50.47 16.32Q50.47 17.14 50.74 17.48Q51 17.83 51.74 17.83L51.74 17.83Q51.94 17.83 52.19 17.81Q52.44 17.78 52.68 17.76L52.68 17.76L52.68 19.66Q52.20 19.73 51.79 19.76Q51.38 19.80 50.90 19.80ZM59.66 19.61L56.95 19.61L56.95 2.18L53.66 2.18L53.66 0.17L62.86 0.17L62.86 2.18L59.66 2.18L59.66 19.61ZM68.04 19.80L68.04 19.80Q66.50 19.80 65.62 19.18Q64.73 18.55 64.36 17.40Q63.98 16.25 63.98 14.69L63.98 14.69L63.98 10.66Q63.98 9.10 64.36 7.94Q64.73 6.79 65.62 6.17Q66.50 5.54 68.04 5.54L68.04 5.54Q69.58 5.54 70.45 6.17Q71.33 6.79 71.70 7.94Q72.07 9.10 72.07 10.66L72.07 10.66L72.07 14.69Q72.07 16.25 71.70 17.40Q71.33 18.55 70.45 19.18Q69.58 19.80 68.04 19.80ZM68.04 17.90L68.04 17.90Q68.78 17.90 69.08 17.47Q69.38 17.04 69.44 16.33Q69.50 15.62 69.50 14.86L69.50 14.86L69.50 10.51Q69.50 9.72 69.44 9.02Q69.38 8.33 69.08 7.88Q68.78 7.44 68.04 7.44L68.04 7.44Q67.30 7.44 66.98 7.88Q66.67 8.33 66.61 9.02Q66.55 9.72 66.55 10.51L66.55 10.51L66.55 14.86Q66.55 15.62 66.61 16.33Q66.67 17.04 66.98 17.47Q67.30 17.90 68.04 17.90ZM78.24 19.80L78.24 19.80Q76.70 19.80 75.82 19.18Q74.93 18.55 74.56 17.40Q74.18 16.25 74.18 14.69L74.18 14.69L74.18 10.66Q74.18 9.10 74.56 7.94Q74.93 6.79 75.82 6.17Q76.70 5.54 78.24 5.54L78.24 5.54Q79.78 5.54 80.65 6.17Q81.53 6.79 81.90 7.94Q82.27 9.10 82.27 10.66L82.27 10.66L82.27 14.69Q82.27 16.25 81.90 17.40Q81.53 18.55 80.65 19.18Q79.78 19.80 78.24 19.80ZM78.24 17.90L78.24 17.90Q78.98 17.90 79.28 17.47Q79.58 17.04 79.64 16.33Q79.70 15.62 79.70 14.86L79.70 14.86L79.70 10.51Q79.70 9.72 79.64 9.02Q79.58 8.33 79.28 7.88Q78.98 7.44 78.24 7.44L78.24 7.44Q77.50 7.44 77.18 7.88Q76.87 8.33 76.81 9.02Q76.75 9.72 76.75 10.51L76.75 10.51L76.75 14.86Q76.75 15.62 76.81 16.33Q76.87 17.04 77.18 17.47Q77.50 17.90 78.24 17.90ZM87.43 19.61L84.86 19.61L84.86 0.17L87.43 0.17L87.43 19.61ZM93.34 19.80L93.34 19.80Q91.63 19.80 90.60 18.73Q89.57 17.66 89.42 15.91L89.42 15.91L91.56 15.26Q91.75 16.58 92.21 17.24Q92.66 17.90 93.55 17.90L93.55 17.90Q94.25 17.90 94.61 17.51Q94.97 17.11 94.97 16.44L94.97 16.44Q94.97 15.84 94.70 15.36Q94.44 14.88 93.84 14.38L93.84 14.38L91.46 12.34Q90.74 11.71 90.25 10.94Q89.76 10.18 89.76 8.95L89.76 8.95Q89.76 7.85 90.20 7.09Q90.65 6.34 91.45 5.94Q92.26 5.54 93.34 5.54L93.34 5.54Q94.99 5.54 95.87 6.61Q96.74 7.68 96.86 9.19L96.86 9.19L95.14 9.84Q95.04 9.12 94.85 8.58Q94.66 8.04 94.32 7.74Q93.98 7.44 93.43 7.44L93.43 7.44Q92.81 7.44 92.44 7.86Q92.06 8.28 92.06 8.86L92.06 8.86Q92.06 9.22 92.22 9.56Q92.38 9.91 92.76 10.25L92.76 10.25L95.21 12.50Q95.71 12.96 96.16 13.49Q96.60 14.02 96.89 14.69Q97.18 15.36 97.18 16.25L97.18 16.25Q97.18 17.42 96.70 18.22Q96.22 19.01 95.35 19.40Q94.49 19.80 93.34 19.80Z" transform="translate(0, 47)"></path></svg>